<svg xmlns="http://www.w3.org/2000/svg" viewBox="0 0 256 256">
  <rect x="32" y="48" width="192" height="128" rx="8" fill="#1e293b"/>
  <rect x="40" y="56" width="176" height="104" fill="#0f172a"/>
  <path d="M48 140 L72 120 L96 130 L120 100 L144 115 L168 90 L192 105 L208 95" stroke="#06b6d4" stroke-width="4" fill="none" stroke-linecap="round" stroke-linejoin="round"/>
  <circle cx="72" cy="120" r="4" fill="#22d3ee"/>
  <circle cx="96" cy="130" r="4" fill="#22d3ee"/>
  <circle cx="120" cy="100" r="4" fill="#22d3ee"/>
  <circle cx="144" cy="115" r="4" fill="#22d3ee"/>
  <circle cx="168" cy="90" r="4" fill="#22d3ee"/>
  <circle cx="192" cy="105" r="4" fill="#22d3ee"/>
  <rect x="48" y="68" width="32" height="6" rx="2" fill="#334155"/>
  <rect x="48" y="80" width="48" height="6" rx="2" fill="#334155"/>
  <rect x="48" y="92" width="24" height="6" rx="2" fill="#334155"/>
  <rect x="88" y="176" width="80" height="8" rx="4" fill="#475569"/>
  <rect x="100" y="184" width="56" height="24" fill="#334155"/>
  <path d="M100 208 L80 224 L176 224 L156 208 Z" fill="#1e293b"/>
</svg>